<svg width="512" height="512" xmlns="http://www.w3.org/2000/svg">
  <defs>
    <radialGradient id="bgGrad" cx="50%" cy="50%" r="70%">
    <stop offset="0%" stop-color="#12132d" />
    <stop offset="60%" stop-color="#070815" />
    <stop offset="100%" stop-color="#030308" />
  </radialGradient>
    <linearGradient id="logoGrad" x1="0%" y1="0%" x2="100%" y2="100%">
    <stop offset="0%" stop-color="#ec4899" />
    <stop offset="50%" stop-color="#818cf8" />
    <stop offset="100%" stop-color="#00f2fe" />
  </linearGradient>
    <linearGradient id="nodeGrad" x1="0%" y1="0%" x2="100%" y2="100%">
    <stop offset="0%" stop-color="#fbbf24" />
    <stop offset="100%" stop-color="#f59e0b" />
  </linearGradient>
  </defs>
  <filter id="glow" x="-50%" y="-50%" width="200%" height="200%"><feGaussianBlur stdDeviation="12" result="blur"/><feMerge><feMergeNode in="blur"/><feMergeNode in="SourceGraphic"/></feMerge></filter>
  <filter id="nodeGlow" x="-50%" y="-50%" width="200%" height="200%"><feGaussianBlur stdDeviation="6" result="blur"/><feMerge><feMergeNode in="blur"/><feMergeNode in="SourceGraphic"/></feMerge></filter>
  <rect x="16" y="16" width="480" height="480" fill="url(#bgGrad)" rx="100" stroke="#1f2245" stroke-width="4" />
  <rect x="28" y="28" width="456" height="456" fill="none" rx="88" stroke="url(#logoGrad)" stroke-width="1.50" opacity="0.25" />
  <line x1="100" y1="28" x2="140" y2="28" stroke="url(#logoGrad)" stroke-width="2" opacity="0.60" />
  <line x1="28" y1="100" x2="28" y2="140" stroke="url(#logoGrad)" stroke-width="2" opacity="0.60" />
  <line x1="372" y1="484" x2="412" y2="484" stroke="url(#logoGrad)" stroke-width="2" opacity="0.60" />
  <line x1="484" y1="372" x2="484" y2="412" stroke="url(#logoGrad)" stroke-width="2" opacity="0.60" />
  <line x1="80" y1="36" x2="80" y2="476" stroke="#ffffff" stroke-width="0.50" opacity="0.04" />
  <line x1="36" y1="80" x2="476" y2="80" stroke="#ffffff" stroke-width="0.50" opacity="0.04" />
  <line x1="120" y1="36" x2="120" y2="476" stroke="#ffffff" stroke-width="0.50" opacity="0.04" />
  <line x1="36" y1="120" x2="476" y2="120" stroke="#ffffff" stroke-width="0.50" opacity="0.04" />
  <line x1="160" y1="36" x2="160" y2="476" stroke="#ffffff" stroke-width="0.50" opacity="0.04" />
  <line x1="36" y1="160" x2="476" y2="160" stroke="#ffffff" stroke-width="0.50" opacity="0.04" />
  <line x1="200" y1="36" x2="200" y2="476" stroke="#ffffff" stroke-width="0.50" opacity="0.04" />
  <line x1="36" y1="200" x2="476" y2="200" stroke="#ffffff" stroke-width="0.50" opacity="0.04" />
  <line x1="240" y1="36" x2="240" y2="476" stroke="#ffffff" stroke-width="0.50" opacity="0.04" />
  <line x1="36" y1="240" x2="476" y2="240" stroke="#ffffff" stroke-width="0.50" opacity="0.04" />
  <line x1="280" y1="36" x2="280" y2="476" stroke="#ffffff" stroke-width="0.50" opacity="0.04" />
  <line x1="36" y1="280" x2="476" y2="280" stroke="#ffffff" stroke-width="0.50" opacity="0.04" />
  <line x1="320" y1="36" x2="320" y2="476" stroke="#ffffff" stroke-width="0.50" opacity="0.04" />
  <line x1="36" y1="320" x2="476" y2="320" stroke="#ffffff" stroke-width="0.50" opacity="0.04" />
  <line x1="360" y1="36" x2="360" y2="476" stroke="#ffffff" stroke-width="0.50" opacity="0.04" />
  <line x1="36" y1="360" x2="476" y2="360" stroke="#ffffff" stroke-width="0.50" opacity="0.04" />
  <line x1="400" y1="36" x2="400" y2="476" stroke="#ffffff" stroke-width="0.50" opacity="0.04" />
  <line x1="36" y1="400" x2="476" y2="400" stroke="#ffffff" stroke-width="0.50" opacity="0.04" />
  <line x1="440" y1="36" x2="440" y2="476" stroke="#ffffff" stroke-width="0.50" opacity="0.04" />
  <line x1="36" y1="440" x2="476" y2="440" stroke="#ffffff" stroke-width="0.50" opacity="0.04" />
  <path d="M 360 160 C 200 130, 140 250, 256 256 C 372 262, 312 382, 152 352" fill="none" stroke="url(#logoGrad)" stroke-width="28" stroke-linecap="round" filter="url(#glow)" opacity="0.40" />
  <path d="M 360 160 C 200 130, 140 250, 256 256 C 372 262, 312 382, 152 352" fill="none" stroke="url(#logoGrad)" stroke-width="10" stroke-linecap="round" />
  <path d="M 360 160 C 200 130, 140 250, 256 256 C 372 262, 312 382, 152 352" fill="none" stroke="#ffffff" stroke-width="2" stroke-linecap="round" opacity="0.80" />
  <line x1="360" y1="160" x2="220" y2="130" stroke="#ffffff" stroke-width="1.50" stroke-dasharray="3,4" opacity="0.50" />
  <circle cx="220" cy="130" r="5" fill="#ffffff" stroke="#ec4899" stroke-width="2" filter="url(#nodeGlow)" />
  <line x1="256" y1="256" x2="170" y2="230" stroke="#ffffff" stroke-width="1.50" stroke-dasharray="3,4" opacity="0.50" />
  <circle cx="170" cy="230" r="5" fill="#ffffff" stroke="#818cf8" stroke-width="2" filter="url(#nodeGlow)" />
  <line x1="256" y1="256" x2="342" y2="282" stroke="#ffffff" stroke-width="1.50" stroke-dasharray="3,4" opacity="0.50" />
  <circle cx="342" cy="282" r="5" fill="#ffffff" stroke="#818cf8" stroke-width="2" filter="url(#nodeGlow)" />
  <line x1="152" y1="352" x2="292" y2="382" stroke="#ffffff" stroke-width="1.50" stroke-dasharray="3,4" opacity="0.50" />
  <circle cx="292" cy="382" r="5" fill="#ffffff" stroke="#00f2fe" stroke-width="2" filter="url(#nodeGlow)" />
  <rect x="353" y="153" width="14" height="14" fill="#ffffff" stroke="#ec4899" stroke-width="3" rx="2" filter="url(#nodeGlow)" />
  <rect x="249" y="249" width="14" height="14" fill="#ffffff" stroke="#818cf8" stroke-width="3" rx="2" filter="url(#nodeGlow)" />
  <rect x="145" y="337" width="14" height="14" fill="#ffffff" stroke="#00f2fe" stroke-width="3" rx="2" filter="url(#nodeGlow)" />
  <path d="M 360 160 L 395 190 L 415 170 L 400 145 Z" fill="url(#nodeGrad)" filter="url(#nodeGlow)" />
  <polygon points="395,190 415,170 422,177 402,197" fill="#1e293b" />
  <line x1="360" y1="160" x2="385" y2="181" stroke="#ffffff" stroke-width="1.50" opacity="0.90" />
  <text x="375" y="135" font-size="9" fill="#fbbf24" font-family="monospace" font-weight="bold" opacity="0.85">P1: 360, 160</text>
</svg>